# xmcd
#
# Track frame offsets: 
#        150
#        21674
#        49949
#        82199
#        108373
#        141672
#        168057
#        199496
#        221320
#
# Disc length: 3389 seconds
#
# Revision: 1
# Processed by: cddbd v1.5.2PL0 Copyright (c) Steve Scherf et al.
# Submitted via: ExactAudioCopy v0.99pb5
#
DISCID=880d3b09
DTITLE=David Hazeltine Trio - Alice In Wonderland
DYEAR=2004
DGENRE=Jazz
TTITLE0=Beautiful Love
TTITLE1=Sweet and Lovely
TTITLE2=Alice In Wonderland
TTITLE3=Autumn Leaves
TTITLE4=When You Wish Upon A Star
TTITLE5=For Bill
TTITLE6=How Deep Is The Ocean
TTITLE7=Danny Boy
TTITLE8=Tenderly
EXTD=YEAR: 2004
EXTT0=
EXTT1=
EXTT2=
EXTT3=
EXTT4=
EXTT5=
EXTT6=
EXTT7=
EXTT8=
PLAYORDER=
